# Procedural fallback OBJ generated from Assembly 1.x_t pipeline
v 0.030000000 -1.000000000 0.000000000
v 0.029743346 -1.000000000 0.003915786
v 0.028977775 -1.000000000 0.007764571
v 0.027716386 -1.000000000 0.011480503
v 0.025980762 -1.000000000 0.015000000
v 0.023800600 -1.000000000 0.018262843
v 0.021213203 -1.000000000 0.021213203
v 0.018262843 -1.000000000 0.023800600
v 0.015000000 -1.000000000 0.025980762
v 0.011480503 -1.000000000 0.027716386
v 0.007764571 -1.000000000 0.028977775
v 0.003915786 -1.000000000 0.029743346
v 0.000000000 -1.000000000 0.030000000
v -0.003915786 -1.000000000 0.029743346
v -0.007764571 -1.000000000 0.028977775
v -0.011480503 -1.000000000 0.027716386
v -0.015000000 -1.000000000 0.025980762
v -0.018262843 -1.000000000 0.023800600
v -0.021213203 -1.000000000 0.021213203
v -0.023800600 -1.000000000 0.018262843
v -0.025980762 -1.000000000 0.015000000
v -0.027716386 -1.000000000 0.011480503
v -0.028977775 -1.000000000 0.007764571
v -0.029743346 -1.000000000 0.003915786
v -0.030000000 -1.000000000 0.000000000
v -0.029743346 -1.000000000 -0.003915786
v -0.028977775 -1.000000000 -0.007764571
v -0.027716386 -1.000000000 -0.011480503
v -0.025980762 -1.000000000 -0.015000000
v -0.023800600 -1.000000000 -0.018262843
v -0.021213203 -1.000000000 -0.021213203
v -0.018262843 -1.000000000 -0.023800600
v -0.015000000 -1.000000000 -0.025980762
v -0.011480503 -1.000000000 -0.027716386
v -0.007764571 -1.000000000 -0.028977775
v -0.003915786 -1.000000000 -0.029743346
v -0.000000000 -1.000000000 -0.030000000
v 0.003915786 -1.000000000 -0.029743346
v 0.007764571 -1.000000000 -0.028977775
v 0.011480503 -1.000000000 -0.027716386
v 0.015000000 -1.000000000 -0.025980762
v 0.018262843 -1.000000000 -0.023800600
v 0.021213203 -1.000000000 -0.021213203
v 0.023800600 -1.000000000 -0.018262843
v 0.025980762 -1.000000000 -0.015000000
v 0.027716386 -1.000000000 -0.011480503
v 0.028977775 -1.000000000 -0.007764571
v 0.029743346 -1.000000000 -0.003915786
v 0.140000000 -0.611111111 0.000000000
v 0.138802281 -0.611111111 0.018273667
v 0.135229616 -0.611111111 0.036234666
v 0.129343135 -0.611111111 0.053575681
v 0.121243557 -0.611111111 0.070000000
v 0.111069468 -0.611111111 0.085226600
v 0.098994949 -0.611111111 0.098994949
v 0.085226600 -0.611111111 0.111069468
v 0.070000000 -0.611111111 0.121243557
v 0.053575681 -0.611111111 0.129343135
v 0.036234666 -0.611111111 0.135229616
v 0.018273667 -0.611111111 0.138802281
v 0.000000000 -0.611111111 0.140000000
v -0.018273667 -0.611111111 0.138802281
v -0.036234666 -0.611111111 0.135229616
v -0.053575681 -0.611111111 0.129343135
v -0.070000000 -0.611111111 0.121243557
v -0.085226600 -0.611111111 0.111069468
v -0.098994949 -0.611111111 0.098994949
v -0.111069468 -0.611111111 0.085226600
v -0.121243557 -0.611111111 0.070000000
v -0.129343135 -0.611111111 0.053575681
v -0.135229616 -0.611111111 0.036234666
v -0.138802281 -0.611111111 0.018273667
v -0.140000000 -0.611111111 0.000000000
v -0.138802281 -0.611111111 -0.018273667
v -0.135229616 -0.611111111 -0.036234666
v -0.129343135 -0.611111111 -0.053575681
v -0.121243557 -0.611111111 -0.070000000
v -0.111069468 -0.611111111 -0.085226600
v -0.098994949 -0.611111111 -0.098994949
v -0.085226600 -0.611111111 -0.111069468
v -0.070000000 -0.611111111 -0.121243557
v -0.053575681 -0.611111111 -0.129343135
v -0.036234666 -0.611111111 -0.135229616
v -0.018273667 -0.611111111 -0.138802281
v -0.000000000 -0.611111111 -0.140000000
v 0.018273667 -0.611111111 -0.138802281
v 0.036234666 -0.611111111 -0.135229616
v 0.053575681 -0.611111111 -0.129343135
v 0.070000000 -0.611111111 -0.121243557
v 0.085226600 -0.611111111 -0.111069468
v 0.098994949 -0.611111111 -0.098994949
v 0.111069468 -0.611111111 -0.085226600
v 0.121243557 -0.611111111 -0.070000000
v 0.129343135 -0.611111111 -0.053575681
v 0.135229616 -0.611111111 -0.036234666
v 0.138802281 -0.611111111 -0.018273667
v 0.140000000 -0.222222222 0.000000000
v 0.138802281 -0.222222222 0.018273667
v 0.135229616 -0.222222222 0.036234666
v 0.129343135 -0.222222222 0.053575681
v 0.121243557 -0.222222222 0.070000000
v 0.111069468 -0.222222222 0.085226600
v 0.098994949 -0.222222222 0.098994949
v 0.085226600 -0.222222222 0.111069468
v 0.070000000 -0.222222222 0.121243557
v 0.053575681 -0.222222222 0.129343135
v 0.036234666 -0.222222222 0.135229616
v 0.018273667 -0.222222222 0.138802281
v 0.000000000 -0.222222222 0.140000000
v -0.018273667 -0.222222222 0.138802281
v -0.036234666 -0.222222222 0.135229616
v -0.053575681 -0.222222222 0.129343135
v -0.070000000 -0.222222222 0.121243557
v -0.085226600 -0.222222222 0.111069468
v -0.098994949 -0.222222222 0.098994949
v -0.111069468 -0.222222222 0.085226600
v -0.121243557 -0.222222222 0.070000000
v -0.129343135 -0.222222222 0.053575681
v -0.135229616 -0.222222222 0.036234666
v -0.138802281 -0.222222222 0.018273667
v -0.140000000 -0.222222222 0.000000000
v -0.138802281 -0.222222222 -0.018273667
v -0.135229616 -0.222222222 -0.036234666
v -0.129343135 -0.222222222 -0.053575681
v -0.121243557 -0.222222222 -0.070000000
v -0.111069468 -0.222222222 -0.085226600
v -0.098994949 -0.222222222 -0.098994949
v -0.085226600 -0.222222222 -0.111069468
v -0.070000000 -0.222222222 -0.121243557
v -0.053575681 -0.222222222 -0.129343135
v -0.036234666 -0.222222222 -0.135229616
v -0.018273667 -0.222222222 -0.138802281
v -0.000000000 -0.222222222 -0.140000000
v 0.018273667 -0.222222222 -0.138802281
v 0.036234666 -0.222222222 -0.135229616
v 0.053575681 -0.222222222 -0.129343135
v 0.070000000 -0.222222222 -0.121243557
v 0.085226600 -0.222222222 -0.111069468
v 0.098994949 -0.222222222 -0.098994949
v 0.111069468 -0.222222222 -0.085226600
v 0.121243557 -0.222222222 -0.070000000
v 0.129343135 -0.222222222 -0.053575681
v 0.135229616 -0.222222222 -0.036234666
v 0.138802281 -0.222222222 -0.018273667
v 0.150000000 0.250000000 0.000000000
v 0.148716729 0.250000000 0.019578929
v 0.144888874 0.250000000 0.038822857
v 0.138581930 0.250000000 0.057402515
v 0.129903811 0.250000000 0.075000000
v 0.119003001 0.250000000 0.091314214
v 0.106066017 0.250000000 0.106066017
v 0.091314214 0.250000000 0.119003001
v 0.075000000 0.250000000 0.129903811
v 0.057402515 0.250000000 0.138581930
v 0.038822857 0.250000000 0.144888874
v 0.019578929 0.250000000 0.148716729
v 0.000000000 0.250000000 0.150000000
v -0.019578929 0.250000000 0.148716729
v -0.038822857 0.250000000 0.144888874
v -0.057402515 0.250000000 0.138581930
v -0.075000000 0.250000000 0.129903811
v -0.091314214 0.250000000 0.119003001
v -0.106066017 0.250000000 0.106066017
v -0.119003001 0.250000000 0.091314214
v -0.129903811 0.250000000 0.075000000
v -0.138581930 0.250000000 0.057402515
v -0.144888874 0.250000000 0.038822857
v -0.148716729 0.250000000 0.019578929
v -0.150000000 0.250000000 0.000000000
v -0.148716729 0.250000000 -0.019578929
v -0.144888874 0.250000000 -0.038822857
v -0.138581930 0.250000000 -0.057402515
v -0.129903811 0.250000000 -0.075000000
v -0.119003001 0.250000000 -0.091314214
v -0.106066017 0.250000000 -0.106066017
v -0.091314214 0.250000000 -0.119003001
v -0.075000000 0.250000000 -0.129903811
v -0.057402515 0.250000000 -0.138581930
v -0.038822857 0.250000000 -0.144888874
v -0.019578929 0.250000000 -0.148716729
v -0.000000000 0.250000000 -0.150000000
v 0.019578929 0.250000000 -0.148716729
v 0.038822857 0.250000000 -0.144888874
v 0.057402515 0.250000000 -0.138581930
v 0.075000000 0.250000000 -0.129903811
v 0.091314214 0.250000000 -0.119003001
v 0.106066017 0.250000000 -0.106066017
v 0.119003001 0.250000000 -0.091314214
v 0.129903811 0.250000000 -0.075000000
v 0.138581930 0.250000000 -0.057402515
v 0.144888874 0.250000000 -0.038822857
v 0.148716729 0.250000000 -0.019578929
v 0.150000000 0.722222222 0.000000000
v 0.148716729 0.722222222 0.019578929
v 0.144888874 0.722222222 0.038822857
v 0.138581930 0.722222222 0.057402515
v 0.129903811 0.722222222 0.075000000
v 0.119003001 0.722222222 0.091314214
v 0.106066017 0.722222222 0.106066017
v 0.091314214 0.722222222 0.119003001
v 0.075000000 0.722222222 0.129903811
v 0.057402515 0.722222222 0.138581930
v 0.038822857 0.722222222 0.144888874
v 0.019578929 0.722222222 0.148716729
v 0.000000000 0.722222222 0.150000000
v -0.019578929 0.722222222 0.148716729
v -0.038822857 0.722222222 0.144888874
v -0.057402515 0.722222222 0.138581930
v -0.075000000 0.722222222 0.129903811
v -0.091314214 0.722222222 0.119003001
v -0.106066017 0.722222222 0.106066017
v -0.119003001 0.722222222 0.091314214
v -0.129903811 0.722222222 0.075000000
v -0.138581930 0.722222222 0.057402515
v -0.144888874 0.722222222 0.038822857
v -0.148716729 0.722222222 0.019578929
v -0.150000000 0.722222222 0.000000000
v -0.148716729 0.722222222 -0.019578929
v -0.144888874 0.722222222 -0.038822857
v -0.138581930 0.722222222 -0.057402515
v -0.129903811 0.722222222 -0.075000000
v -0.119003001 0.722222222 -0.091314214
v -0.106066017 0.722222222 -0.106066017
v -0.091314214 0.722222222 -0.119003001
v -0.075000000 0.722222222 -0.129903811
v -0.057402515 0.722222222 -0.138581930
v -0.038822857 0.722222222 -0.144888874
v -0.019578929 0.722222222 -0.148716729
v -0.000000000 0.722222222 -0.150000000
v 0.019578929 0.722222222 -0.148716729
v 0.038822857 0.722222222 -0.144888874
v 0.057402515 0.722222222 -0.138581930
v 0.075000000 0.722222222 -0.129903811
v 0.091314214 0.722222222 -0.119003001
v 0.106066017 0.722222222 -0.106066017
v 0.119003001 0.722222222 -0.091314214
v 0.129903811 0.722222222 -0.075000000
v 0.138581930 0.722222222 -0.057402515
v 0.144888874 0.722222222 -0.038822857
v 0.148716729 0.722222222 -0.019578929
v 0.130000000 1.000000000 0.000000000
v 0.128887832 1.000000000 0.016968405
v 0.125570357 1.000000000 0.033646476
v 0.120104339 1.000000000 0.049748846
v 0.112583302 1.000000000 0.065000000
v 0.103135934 1.000000000 0.079138986
v 0.091923882 1.000000000 0.091923882
v 0.079138986 1.000000000 0.103135934
v 0.065000000 1.000000000 0.112583302
v 0.049748846 1.000000000 0.120104339
v 0.033646476 1.000000000 0.125570357
v 0.016968405 1.000000000 0.128887832
v 0.000000000 1.000000000 0.130000000
v -0.016968405 1.000000000 0.128887832
v -0.033646476 1.000000000 0.125570357
v -0.049748846 1.000000000 0.120104339
v -0.065000000 1.000000000 0.112583302
v -0.079138986 1.000000000 0.103135934
v -0.091923882 1.000000000 0.091923882
v -0.103135934 1.000000000 0.079138986
v -0.112583302 1.000000000 0.065000000
v -0.120104339 1.000000000 0.049748846
v -0.125570357 1.000000000 0.033646476
v -0.128887832 1.000000000 0.016968405
v -0.130000000 1.000000000 0.000000000
v -0.128887832 1.000000000 -0.016968405
v -0.125570357 1.000000000 -0.033646476
v -0.120104339 1.000000000 -0.049748846
v -0.112583302 1.000000000 -0.065000000
v -0.103135934 1.000000000 -0.079138986
v -0.091923882 1.000000000 -0.091923882
v -0.079138986 1.000000000 -0.103135934
v -0.065000000 1.000000000 -0.112583302
v -0.049748846 1.000000000 -0.120104339
v -0.033646476 1.000000000 -0.125570357
v -0.016968405 1.000000000 -0.128887832
v -0.000000000 1.000000000 -0.130000000
v 0.016968405 1.000000000 -0.128887832
v 0.033646476 1.000000000 -0.125570357
v 0.049748846 1.000000000 -0.120104339
v 0.065000000 1.000000000 -0.112583302
v 0.079138986 1.000000000 -0.103135934
v 0.091923882 1.000000000 -0.091923882
v 0.103135934 1.000000000 -0.079138986
v 0.112583302 1.000000000 -0.065000000
v 0.120104339 1.000000000 -0.049748846
v 0.125570357 1.000000000 -0.033646476
v 0.128887832 1.000000000 -0.016968405
v 0.000000000 -1.000000000 0.000000000
v 0.000000000 1.000000000 0.000000000
f 1 49 50
f 1 50 2
f 2 50 51
f 2 51 3
f 3 51 52
f 3 52 4
f 4 52 53
f 4 53 5
f 5 53 54
f 5 54 6
f 6 54 55
f 6 55 7
f 7 55 56
f 7 56 8
f 8 56 57
f 8 57 9
f 9 57 58
f 9 58 10
f 10 58 59
f 10 59 11
f 11 59 60
f 11 60 12
f 12 60 61
f 12 61 13
f 13 61 62
f 13 62 14
f 14 62 63
f 14 63 15
f 15 63 64
f 15 64 16
f 16 64 65
f 16 65 17
f 17 65 66
f 17 66 18
f 18 66 67
f 18 67 19
f 19 67 68
f 19 68 20
f 20 68 69
f 20 69 21
f 21 69 70
f 21 70 22
f 22 70 71
f 22 71 23
f 23 71 72
f 23 72 24
f 24 72 73
f 24 73 25
f 25 73 74
f 25 74 26
f 26 74 75
f 26 75 27
f 27 75 76
f 27 76 28
f 28 76 77
f 28 77 29
f 29 77 78
f 29 78 30
f 30 78 79
f 30 79 31
f 31 79 80
f 31 80 32
f 32 80 81
f 32 81 33
f 33 81 82
f 33 82 34
f 34 82 83
f 34 83 35
f 35 83 84
f 35 84 36
f 36 84 85
f 36 85 37
f 37 85 86
f 37 86 38
f 38 86 87
f 38 87 39
f 39 87 88
f 39 88 40
f 40 88 89
f 40 89 41
f 41 89 90
f 41 90 42
f 42 90 91
f 42 91 43
f 43 91 92
f 43 92 44
f 44 92 93
f 44 93 45
f 45 93 94
f 45 94 46
f 46 94 95
f 46 95 47
f 47 95 96
f 47 96 48
f 48 96 49
f 48 49 1
f 49 97 98
f 49 98 50
f 50 98 99
f 50 99 51
f 51 99 100
f 51 100 52
f 52 100 101
f 52 101 53
f 53 101 102
f 53 102 54
f 54 102 103
f 54 103 55
f 55 103 104
f 55 104 56
f 56 104 105
f 56 105 57
f 57 105 106
f 57 106 58
f 58 106 107
f 58 107 59
f 59 107 108
f 59 108 60
f 60 108 109
f 60 109 61
f 61 109 110
f 61 110 62
f 62 110 111
f 62 111 63
f 63 111 112
f 63 112 64
f 64 112 113
f 64 113 65
f 65 113 114
f 65 114 66
f 66 114 115
f 66 115 67
f 67 115 116
f 67 116 68
f 68 116 117
f 68 117 69
f 69 117 118
f 69 118 70
f 70 118 119
f 70 119 71
f 71 119 120
f 71 120 72
f 72 120 121
f 72 121 73
f 73 121 122
f 73 122 74
f 74 122 123
f 74 123 75
f 75 123 124
f 75 124 76
f 76 124 125
f 76 125 77
f 77 125 126
f 77 126 78
f 78 126 127
f 78 127 79
f 79 127 128
f 79 128 80
f 80 128 129
f 80 129 81
f 81 129 130
f 81 130 82
f 82 130 131
f 82 131 83
f 83 131 132
f 83 132 84
f 84 132 133
f 84 133 85
f 85 133 134
f 85 134 86
f 86 134 135
f 86 135 87
f 87 135 136
f 87 136 88
f 88 136 137
f 88 137 89
f 89 137 138
f 89 138 90
f 90 138 139
f 90 139 91
f 91 139 140
f 91 140 92
f 92 140 141
f 92 141 93
f 93 141 142
f 93 142 94
f 94 142 143
f 94 143 95
f 95 143 144
f 95 144 96
f 96 144 97
f 96 97 49
f 97 145 146
f 97 146 98
f 98 146 147
f 98 147 99
f 99 147 148
f 99 148 100
f 100 148 149
f 100 149 101
f 101 149 150
f 101 150 102
f 102 150 151
f 102 151 103
f 103 151 152
f 103 152 104
f 104 152 153
f 104 153 105
f 105 153 154
f 105 154 106
f 106 154 155
f 106 155 107
f 107 155 156
f 107 156 108
f 108 156 157
f 108 157 109
f 109 157 158
f 109 158 110
f 110 158 159
f 110 159 111
f 111 159 160
f 111 160 112
f 112 160 161
f 112 161 113
f 113 161 162
f 113 162 114
f 114 162 163
f 114 163 115
f 115 163 164
f 115 164 116
f 116 164 165
f 116 165 117
f 117 165 166
f 117 166 118
f 118 166 167
f 118 167 119
f 119 167 168
f 119 168 120
f 120 168 169
f 120 169 121
f 121 169 170
f 121 170 122
f 122 170 171
f 122 171 123
f 123 171 172
f 123 172 124
f 124 172 173
f 124 173 125
f 125 173 174
f 125 174 126
f 126 174 175
f 126 175 127
f 127 175 176
f 127 176 128
f 128 176 177
f 128 177 129
f 129 177 178
f 129 178 130
f 130 178 179
f 130 179 131
f 131 179 180
f 131 180 132
f 132 180 181
f 132 181 133
f 133 181 182
f 133 182 134
f 134 182 183
f 134 183 135
f 135 183 184
f 135 184 136
f 136 184 185
f 136 185 137
f 137 185 186
f 137 186 138
f 138 186 187
f 138 187 139
f 139 187 188
f 139 188 140
f 140 188 189
f 140 189 141
f 141 189 190
f 141 190 142
f 142 190 191
f 142 191 143
f 143 191 192
f 143 192 144
f 144 192 145
f 144 145 97
f 145 193 194
f 145 194 146
f 146 194 195
f 146 195 147
f 147 195 196
f 147 196 148
f 148 196 197
f 148 197 149
f 149 197 198
f 149 198 150
f 150 198 199
f 150 199 151
f 151 199 200
f 151 200 152
f 152 200 201
f 152 201 153
f 153 201 202
f 153 202 154
f 154 202 203
f 154 203 155
f 155 203 204
f 155 204 156
f 156 204 205
f 156 205 157
f 157 205 206
f 157 206 158
f 158 206 207
f 158 207 159
f 159 207 208
f 159 208 160
f 160 208 209
f 160 209 161
f 161 209 210
f 161 210 162
f 162 210 211
f 162 211 163
f 163 211 212
f 163 212 164
f 164 212 213
f 164 213 165
f 165 213 214
f 165 214 166
f 166 214 215
f 166 215 167
f 167 215 216
f 167 216 168
f 168 216 217
f 168 217 169
f 169 217 218
f 169 218 170
f 170 218 219
f 170 219 171
f 171 219 220
f 171 220 172
f 172 220 221
f 172 221 173
f 173 221 222
f 173 222 174
f 174 222 223
f 174 223 175
f 175 223 224
f 175 224 176
f 176 224 225
f 176 225 177
f 177 225 226
f 177 226 178
f 178 226 227
f 178 227 179
f 179 227 228
f 179 228 180
f 180 228 229
f 180 229 181
f 181 229 230
f 181 230 182
f 182 230 231
f 182 231 183
f 183 231 232
f 183 232 184
f 184 232 233
f 184 233 185
f 185 233 234
f 185 234 186
f 186 234 235
f 186 235 187
f 187 235 236
f 187 236 188
f 188 236 237
f 188 237 189
f 189 237 238
f 189 238 190
f 190 238 239
f 190 239 191
f 191 239 240
f 191 240 192
f 192 240 193
f 192 193 145
f 193 241 242
f 193 242 194
f 194 242 243
f 194 243 195
f 195 243 244
f 195 244 196
f 196 244 245
f 196 245 197
f 197 245 246
f 197 246 198
f 198 246 247
f 198 247 199
f 199 247 248
f 199 248 200
f 200 248 249
f 200 249 201
f 201 249 250
f 201 250 202
f 202 250 251
f 202 251 203
f 203 251 252
f 203 252 204
f 204 252 253
f 204 253 205
f 205 253 254
f 205 254 206
f 206 254 255
f 206 255 207
f 207 255 256
f 207 256 208
f 208 256 257
f 208 257 209
f 209 257 258
f 209 258 210
f 210 258 259
f 210 259 211
f 211 259 260
f 211 260 212
f 212 260 261
f 212 261 213
f 213 261 262
f 213 262 214
f 214 262 263
f 214 263 215
f 215 263 264
f 215 264 216
f 216 264 265
f 216 265 217
f 217 265 266
f 217 266 218
f 218 266 267
f 218 267 219
f 219 267 268
f 219 268 220
f 220 268 269
f 220 269 221
f 221 269 270
f 221 270 222
f 222 270 271
f 222 271 223
f 223 271 272
f 223 272 224
f 224 272 273
f 224 273 225
f 225 273 274
f 225 274 226
f 226 274 275
f 226 275 227
f 227 275 276
f 227 276 228
f 228 276 277
f 228 277 229
f 229 277 278
f 229 278 230
f 230 278 279
f 230 279 231
f 231 279 280
f 231 280 232
f 232 280 281
f 232 281 233
f 233 281 282
f 233 282 234
f 234 282 283
f 234 283 235
f 235 283 284
f 235 284 236
f 236 284 285
f 236 285 237
f 237 285 286
f 237 286 238
f 238 286 287
f 238 287 239
f 239 287 288
f 239 288 240
f 240 288 241
f 240 241 193
f 289 2 1
f 289 3 2
f 289 4 3
f 289 5 4
f 289 6 5
f 289 7 6
f 289 8 7
f 289 9 8
f 289 10 9
f 289 11 10
f 289 12 11
f 289 13 12
f 289 14 13
f 289 15 14
f 289 16 15
f 289 17 16
f 289 18 17
f 289 19 18
f 289 20 19
f 289 21 20
f 289 22 21
f 289 23 22
f 289 24 23
f 289 25 24
f 289 26 25
f 289 27 26
f 289 28 27
f 289 29 28
f 289 30 29
f 289 31 30
f 289 32 31
f 289 33 32
f 289 34 33
f 289 35 34
f 289 36 35
f 289 37 36
f 289 38 37
f 289 39 38
f 289 40 39
f 289 41 40
f 289 42 41
f 289 43 42
f 289 44 43
f 289 45 44
f 289 46 45
f 289 47 46
f 289 48 47
f 289 1 48
f 290 241 242
f 290 242 243
f 290 243 244
f 290 244 245
f 290 245 246
f 290 246 247
f 290 247 248
f 290 248 249
f 290 249 250
f 290 250 251
f 290 251 252
f 290 252 253
f 290 253 254
f 290 254 255
f 290 255 256
f 290 256 257
f 290 257 258
f 290 258 259
f 290 259 260
f 290 260 261
f 290 261 262
f 290 262 263
f 290 263 264
f 290 264 265
f 290 265 266
f 290 266 267
f 290 267 268
f 290 268 269
f 290 269 270
f 290 270 271
f 290 271 272
f 290 272 273
f 290 273 274
f 290 274 275
f 290 275 276
f 290 276 277
f 290 277 278
f 290 278 279
f 290 279 280
f 290 280 281
f 290 281 282
f 290 282 283
f 290 283 284
f 290 284 285
f 290 285 286
f 290 286 287
f 290 287 288
f 290 288 241
